<svg width="44" height="28" viewBox="0 0 44 28" fill="none" xmlns="http://www.w3.org/2000/svg">
<g clip-path="url(#clip0_117_346)">
<path d="M41.9554 14V8.16669H45.6073V15.1667H41.9554M41.9554 19.8334H45.6073V17.5H41.9554M23.696 15.1667C28.5713 15.1667 38.3035 16.73 38.3035 19.8334V23.3334H9.08847V19.8334C9.08847 16.73 18.8207 15.1667 23.696 15.1667ZM23.696 4.66669C25.6331 4.66669 27.4908 5.15835 28.8605 6.03352C30.2303 6.90869 30.9998 8.09568 30.9998 9.33335C30.9998 10.571 30.2303 11.758 28.8605 12.6332C27.4908 13.5084 25.6331 14 23.696 14C21.7589 14 19.9012 13.5084 18.5315 12.6332C17.1617 11.758 16.3922 10.571 16.3922 9.33335C16.3922 8.09568 17.1617 6.90869 18.5315 6.03352C19.9012 5.15835 21.7589 4.66669 23.696 4.66669ZM23.696 17.3834C18.273 17.3834 12.5578 19.0867 12.5578 19.8334V21.1167H34.8342V19.8334C34.8342 19.0867 29.119 17.3834 23.696 17.3834ZM23.696 6.88335C22.679 6.88335 21.7037 7.14148 20.9846 7.60094C20.2655 8.06041 19.8615 8.68357 19.8615 9.33335C19.8615 9.98313 20.2655 10.6063 20.9846 11.0658C21.7037 11.5252 22.679 11.7834 23.696 11.7834C24.713 11.7834 25.6883 11.5252 26.4074 11.0658C27.1265 10.6063 27.5305 9.98313 27.5305 9.33335C27.5305 8.68357 27.1265 8.06041 26.4074 7.60094C25.6883 7.14148 24.713 6.88335 23.696 6.88335Z" fill="black"/>
</g>
<defs>
<clipPath id="clip0_117_346">
<rect width="43.8226" height="28" fill="white"/>
</clipPath>
</defs>
</svg>
