<svg width="33" height="28" viewBox="0 0 33 28" fill="none" xmlns="http://www.w3.org/2000/svg">
<path d="M29.1023 19.1926H10.3241L11.2669 17.5273L26.9328 17.5027C27.4625 17.5027 27.9166 17.1746 28.0112 16.7207L30.1807 6.19062C30.2375 5.91445 30.1523 5.63008 29.9442 5.41406C29.8414 5.30775 29.7131 5.22211 29.5682 5.16309C29.4234 5.10407 29.2655 5.07308 29.1054 5.07227L9.17624 5.01484L9.00596 4.32031C8.89875 3.87734 8.43836 3.55469 7.9149 3.55469H3.04297C2.74775 3.55469 2.46462 3.65638 2.25587 3.8374C2.04712 4.01841 1.92984 4.26393 1.92984 4.51992C1.92984 4.77592 2.04712 5.02143 2.25587 5.20245C2.46462 5.38346 2.74775 5.48516 3.04297 5.48516H7.01304L7.75723 8.55312L9.58933 16.2449L7.23062 19.5836C7.10813 19.727 7.03435 19.8972 7.01764 20.075C7.00092 20.2528 7.04193 20.4312 7.13602 20.5898C7.32522 20.9152 7.70678 21.1203 8.12933 21.1203H10.1096C9.68746 21.6065 9.45942 22.1988 9.46004 22.8074C9.46004 24.3551 10.9106 25.6129 12.6954 25.6129C14.4802 25.6129 15.9307 24.3551 15.9307 22.8074C15.9307 22.1977 15.6974 21.6043 15.2811 21.1203H20.3612C19.939 21.6065 19.711 22.1988 19.7116 22.8074C19.7116 24.3551 21.1621 25.6129 22.9469 25.6129C24.7317 25.6129 26.1823 24.3551 26.1823 22.8074C26.1823 22.1977 25.9489 21.6043 25.5327 21.1203H29.1054C29.7172 21.1203 30.2186 20.6883 30.2186 20.1551C30.2167 19.8994 30.0983 19.6546 29.8892 19.4743C29.6801 19.294 29.3972 19.1927 29.1023 19.1926ZM9.63978 6.91797L27.7968 6.96992L26.0183 15.6051L11.7557 15.627L9.63978 6.91797ZM12.6954 23.6715C12.1467 23.6715 11.6989 23.2832 11.6989 22.8074C11.6989 22.3316 12.1467 21.9434 12.6954 21.9434C13.2441 21.9434 13.6918 22.3316 13.6918 22.8074C13.6918 23.0366 13.5869 23.2564 13.4 23.4184C13.2131 23.5805 12.9597 23.6715 12.6954 23.6715ZM22.9469 23.6715C22.3982 23.6715 21.9505 23.2832 21.9505 22.8074C21.9505 22.3316 22.3982 21.9434 22.9469 21.9434C23.4956 21.9434 23.9434 22.3316 23.9434 22.8074C23.9434 23.0366 23.8384 23.2564 23.6515 23.4184C23.4647 23.5805 23.2112 23.6715 22.9469 23.6715Z" fill="black"/>
</svg>
